<?xml version="1.0" encoding="utf-8"?>
<!-- Generator: Adobe Illustrator 23.0.2, SVG Export Plug-In . SVG Version: 6.00 Build 0)  -->
<svg version="1.1" id="Layer_1" xmlns="http://www.w3.org/2000/svg" xmlns:xlink="http://www.w3.org/1999/xlink" x="0px" y="0px"
	 viewBox="0 0 1000 318" style="enable-background:new 0 0 1000 318;" xml:space="preserve">
<style type="text/css">
	.st0{fill:#FFFFFF;}
</style>
<g>
	<path d="M236.81,188.83l57.5-133.97h21.35l61.28,133.97h-22.57l-17.47-40.58H274.3l-16.44,40.58H236.81z M280.01,133.82h50.76
		l-15.63-37.1c-4.77-11.27-8.31-20.53-10.62-27.78c-1.91,8.59-4.6,17.12-8.07,25.59L280.01,133.82z"/>
	<path d="M413.94,188.83V54.86h22.78v133.97H413.94z"/>
	<path d="M485.5,188.83V54.86h54.35c12.27,0,21.63,0.64,28.09,1.92c9.04,1.77,16.75,4.97,23.14,9.6
		c8.32,5.97,14.55,13.6,18.67,22.89c4.13,9.29,6.19,19.91,6.19,31.85c0,10.18-1.4,19.19-4.2,27.05s-6.39,14.36-10.76,19.51
		c-4.38,5.15-9.17,9.2-14.37,12.15c-5.2,2.96-11.48,5.19-18.83,6.72c-7.36,1.52-15.81,2.29-25.35,2.29H485.5z M506.38,173.02h33.69
		c10.4,0,18.57-0.82,24.48-2.47c5.92-1.64,10.64-3.96,14.15-6.95c4.95-4.2,8.81-9.85,11.57-16.95c2.76-7.1,4.14-15.7,4.14-25.82
		c0-14.01-2.71-24.78-8.13-32.31c-5.42-7.52-12-12.56-19.75-15.12c-5.6-1.83-14.6-2.74-27.02-2.74h-33.15V173.02z"/>
	<path d="M655.64,188.83V54.86h22.78v118.16h84.78v15.81H655.64z"/>
</g>
<g>
	<path d="M43.41,241.9h-8.99l-1.25,5.57h-8.09l9.63-33.76h8.64l9.63,33.76H44.7L43.41,241.9z M41.77,234.6l-2.83-12.14l-2.8,12.14
		H41.77z"/>
	<path d="M53.77,240.68l7.06-0.88c0.29,1.1,0.7,1.9,1.22,2.37c0.52,0.48,1.22,0.71,2.1,0.71c0.96,0,1.7-0.27,2.22-0.8
		c0.41-0.4,0.61-0.9,0.61-1.49c0-0.67-0.27-1.2-0.8-1.56c-0.38-0.26-1.4-0.58-3.06-0.97c-2.47-0.57-4.19-1.09-5.15-1.58
		c-0.96-0.48-1.77-1.3-2.43-2.45c-0.66-1.15-0.99-2.46-0.99-3.93c0-1.61,0.36-3,1.07-4.16c0.71-1.17,1.69-2.04,2.94-2.61
		c1.25-0.58,2.92-0.86,5.02-0.86c2.21,0,3.85,0.22,4.9,0.67c1.05,0.45,1.93,1.14,2.64,2.07c0.7,0.94,1.29,2.2,1.76,3.8l-6.75,0.88
		c-0.17-0.78-0.47-1.36-0.87-1.73c-0.56-0.49-1.24-0.74-2.03-0.74c-0.8,0-1.39,0.19-1.76,0.56s-0.55,0.83-0.55,1.37
		c0,0.6,0.23,1.05,0.7,1.36c0.47,0.31,1.48,0.58,3.04,0.83c2.37,0.35,4.13,0.84,5.28,1.47s2.04,1.53,2.65,2.69
		c0.61,1.17,0.92,2.45,0.92,3.84c0,1.41-0.32,2.78-0.97,4.12c-0.65,1.33-1.67,2.4-3.06,3.19c-1.39,0.79-3.29,1.18-5.69,1.18
		c-3.39,0-5.81-0.64-7.25-1.91S54.18,243.03,53.77,240.68z"/>
	<path d="M75.64,240.68l7.06-0.88c0.29,1.1,0.7,1.9,1.22,2.37c0.52,0.48,1.22,0.71,2.1,0.71c0.96,0,1.7-0.27,2.22-0.8
		c0.41-0.4,0.61-0.9,0.61-1.49c0-0.67-0.27-1.2-0.8-1.56c-0.38-0.26-1.4-0.58-3.06-0.97c-2.47-0.57-4.19-1.09-5.15-1.58
		c-0.96-0.48-1.77-1.3-2.43-2.45c-0.66-1.15-0.99-2.46-0.99-3.93c0-1.61,0.36-3,1.07-4.16c0.71-1.17,1.69-2.04,2.94-2.61
		c1.25-0.58,2.92-0.86,5.02-0.86c2.21,0,3.85,0.22,4.9,0.67c1.05,0.45,1.93,1.14,2.64,2.07c0.7,0.94,1.29,2.2,1.76,3.8L88,229.88
		c-0.17-0.78-0.47-1.36-0.87-1.73c-0.56-0.49-1.24-0.74-2.03-0.74c-0.8,0-1.39,0.19-1.76,0.56s-0.55,0.83-0.55,1.37
		c0,0.6,0.23,1.05,0.7,1.36c0.47,0.31,1.48,0.58,3.04,0.83c2.37,0.35,4.13,0.84,5.28,1.47s2.04,1.53,2.65,2.69
		c0.61,1.17,0.92,2.45,0.92,3.84c0,1.41-0.32,2.78-0.97,4.12c-0.65,1.33-1.67,2.4-3.06,3.19c-1.39,0.79-3.29,1.18-5.69,1.18
		c-3.39,0-5.81-0.64-7.25-1.91S76.05,243.03,75.64,240.68z"/>
	<path d="M97.89,235.32c0-3.73,0.96-6.8,2.87-9.22c1.91-2.42,4.49-3.63,7.74-3.63c3.72,0,6.53,1.42,8.43,4.26
		c1.53,2.29,2.29,5.1,2.29,8.45c0,3.76-0.95,6.84-2.84,9.25c-1.89,2.4-4.51,3.6-7.86,3.6c-2.98,0-5.4-1-7.24-2.99
		C99.03,242.57,97.89,239.33,97.89,235.32z M105.03,235.3c0,2.18,0.33,3.79,1,4.84c0.67,1.04,1.51,1.57,2.53,1.57
		c1.02,0,1.87-0.51,2.53-1.54c0.66-1.03,0.99-2.68,0.99-4.95c0-2.12-0.33-3.7-1-4.73c-0.66-1.04-1.49-1.55-2.46-1.55
		c-1.04,0-1.89,0.53-2.57,1.58S105.03,233.15,105.03,235.3z"/>
	<path d="M136.49,237.9l6.77,1.01c-0.37,1.86-0.98,3.47-1.84,4.82c-0.85,1.36-1.94,2.41-3.26,3.17c-1.32,0.75-3,1.13-5.04,1.13
		c-1.97,0-3.61-0.24-4.92-0.72c-1.31-0.48-2.44-1.27-3.38-2.35c-0.94-1.08-1.68-2.35-2.22-3.81s-0.8-3.39-0.8-5.8
		c0-2.52,0.33-4.61,0.98-6.28c0.48-1.23,1.13-2.33,1.96-3.3c0.83-0.97,1.68-1.7,2.55-2.17c1.39-0.75,3.16-1.13,5.33-1.13
		c3.03,0,5.34,0.71,6.93,2.14s2.71,3.52,3.35,6.26l-6.69,1.17c-0.21-1.04-0.59-1.83-1.15-2.36c-0.55-0.53-1.3-0.79-2.23-0.79
		c-1.18,0-2.13,0.56-2.86,1.67c-0.73,1.11-1.09,2.79-1.09,5.05c0,2.01,0.36,3.53,1.08,4.57c0.72,1.04,1.64,1.56,2.76,1.56
		c0.93,0,1.72-0.31,2.35-0.94C135.7,240.17,136.18,239.2,136.49,237.9z"/>
	<path d="M146.79,213.72h7.11v6.38h-7.11V213.72z M146.79,223.02h7.11v24.46h-7.11V223.02z"/>
	<path d="M164.93,230.94l-6.8-0.94c0.26-1.57,0.63-2.8,1.11-3.7c0.48-0.9,1.18-1.68,2.09-2.34c0.65-0.48,1.55-0.84,2.69-1.11
		c1.14-0.26,2.38-0.39,3.71-0.39c2.13,0,3.85,0.16,5.14,0.47c1.29,0.32,2.37,0.97,3.23,1.97c0.61,0.69,1.08,1.67,1.43,2.94
		s0.52,2.48,0.52,3.63v10.8c0,1.15,0.06,2.05,0.17,2.71c0.11,0.65,0.35,1.49,0.73,2.5h-6.68c-0.27-0.63-0.44-1.11-0.52-1.44
		s-0.16-0.85-0.24-1.55c-0.93,1.18-1.86,2.03-2.78,2.53c-1.26,0.68-2.72,1.01-4.39,1.01c-2.21,0-3.9-0.68-5.04-2.03
		c-1.15-1.35-1.72-3.02-1.72-5c0-1.86,0.41-3.39,1.24-4.58s2.35-2.09,4.58-2.67c2.67-0.71,4.4-1.2,5.19-1.49
		c0.79-0.28,1.63-0.66,2.52-1.12c0-1.15-0.18-1.96-0.54-2.42c-0.36-0.46-1-0.69-1.91-0.69c-1.17,0-2.04,0.25-2.62,0.74
		C165.58,229.16,165.21,229.88,164.93,230.94z M171.1,235.87c-0.98,0.46-2,0.87-3.06,1.22c-1.45,0.51-2.36,1.01-2.74,1.5
		c-0.4,0.51-0.59,1.08-0.59,1.73c0,0.74,0.19,1.34,0.59,1.81c0.39,0.47,0.96,0.7,1.72,0.7c0.79,0,1.53-0.25,2.21-0.76
		c0.68-0.51,1.17-1.12,1.45-1.85c0.29-0.73,0.43-1.68,0.43-2.84V235.87z"/>
	<path d="M190.3,213.72v9.3h3.92v6.86h-3.92v8.66c0,1.04,0.08,1.73,0.23,2.07c0.23,0.52,0.64,0.78,1.22,0.78
		c0.52,0,1.26-0.2,2.2-0.6l0.52,6.47c-1.76,0.51-3.4,0.76-4.93,0.76c-1.77,0-3.08-0.3-3.92-0.9c-0.84-0.6-1.46-1.51-1.86-2.72
		c-0.4-1.22-0.6-3.19-0.6-5.92v-8.6h-2.62v-6.86h2.62v-4.49L190.3,213.72z"/>
	<path d="M218.21,237.58h-14.26c0.13,1.5,0.44,2.63,0.93,3.36c0.69,1.06,1.58,1.59,2.69,1.59c0.7,0,1.36-0.23,1.99-0.69
		c0.38-0.29,0.8-0.81,1.24-1.54l7.01,0.85c-1.07,2.46-2.37,4.22-3.88,5.29c-1.52,1.07-3.69,1.6-6.52,1.6c-2.46,0-4.39-0.46-5.8-1.37
		c-1.41-0.91-2.58-2.36-3.5-4.35c-0.93-1.99-1.39-4.33-1.39-7.01c0-3.82,0.93-6.92,2.79-9.28c1.86-2.36,4.43-3.55,7.7-3.55
		c2.66,0,4.75,0.53,6.29,1.59c1.54,1.06,2.71,2.59,3.51,4.61c0.8,2.01,1.21,4.63,1.21,7.85V237.58z M210.98,233.08
		c-0.14-1.81-0.51-3.11-1.11-3.89c-0.6-0.78-1.39-1.17-2.37-1.17c-1.13,0-2.03,0.59-2.71,1.77c-0.43,0.74-0.71,1.83-0.82,3.29
		H210.98z"/>
	<path d="M241.03,213.72v33.76h-6.66v-3.62c-0.93,1.54-1.78,2.57-2.55,3.11c-1.03,0.71-2.17,1.06-3.43,1.06
		c-2.53,0-4.46-1.27-5.79-3.8c-1.33-2.53-2-5.61-2-9.23c0-4.05,0.74-7.15,2.21-9.3c1.47-2.15,3.35-3.22,5.62-3.22
		c1.11,0,2.11,0.25,3.02,0.74c0.9,0.49,1.7,1.23,2.4,2.21v-11.7H241.03z M233.89,235.18c0-1.92-0.31-3.35-0.93-4.29
		s-1.4-1.42-2.34-1.42c-0.83,0-1.52,0.45-2.08,1.36c-0.56,0.91-0.84,2.43-0.84,4.56c0,2,0.29,3.46,0.87,4.39
		c0.58,0.93,1.29,1.39,2.14,1.39c0.91,0,1.67-0.47,2.27-1.41C233.59,238.83,233.89,237.3,233.89,235.18z"/>
	<path d="M258.09,213.72h7.94v33.76h-7.94V213.72z"/>
	<path d="M271.23,223.02h6.63V227c0.99-1.63,1.99-2.79,3.01-3.49c1.01-0.7,2.25-1.05,3.71-1.05c1.97,0,3.51,0.77,4.62,2.31
		s1.67,3.93,1.67,7.15v15.54h-7.15v-13.45c0-1.54-0.22-2.62-0.65-3.26c-0.43-0.64-1.04-0.96-1.82-0.96c-0.86,0-1.56,0.43-2.1,1.29
		c-0.54,0.86-0.8,2.4-0.8,4.63v11.74h-7.11V223.02z"/>
	<path d="M293.85,240.68l7.06-0.88c0.29,1.1,0.7,1.9,1.22,2.37c0.52,0.48,1.22,0.71,2.1,0.71c0.96,0,1.7-0.27,2.22-0.8
		c0.41-0.4,0.61-0.9,0.61-1.49c0-0.67-0.27-1.2-0.8-1.56c-0.38-0.26-1.4-0.58-3.06-0.97c-2.47-0.57-4.19-1.09-5.15-1.58
		c-0.96-0.48-1.77-1.3-2.43-2.45c-0.66-1.15-0.99-2.46-0.99-3.93c0-1.61,0.36-3,1.07-4.16c0.71-1.17,1.69-2.04,2.94-2.61
		c1.25-0.58,2.92-0.86,5.02-0.86c2.21,0,3.85,0.22,4.9,0.67c1.05,0.45,1.93,1.14,2.64,2.07c0.7,0.94,1.29,2.2,1.76,3.8l-6.75,0.88
		c-0.17-0.78-0.47-1.36-0.87-1.73c-0.56-0.49-1.24-0.74-2.03-0.74c-0.8,0-1.39,0.19-1.76,0.56s-0.55,0.83-0.55,1.37
		c0,0.6,0.23,1.05,0.7,1.36c0.47,0.31,1.48,0.58,3.04,0.83c2.37,0.35,4.13,0.84,5.28,1.47s2.04,1.53,2.65,2.69
		c0.61,1.17,0.92,2.45,0.92,3.84c0,1.41-0.32,2.78-0.97,4.12c-0.65,1.33-1.67,2.4-3.06,3.19c-1.39,0.79-3.29,1.18-5.69,1.18
		c-3.39,0-5.81-0.64-7.25-1.91S294.26,243.03,293.85,240.68z"/>
	<path d="M325.56,213.72v9.3h3.92v6.86h-3.92v8.66c0,1.04,0.08,1.73,0.23,2.07c0.23,0.52,0.64,0.78,1.22,0.78
		c0.52,0,1.26-0.2,2.2-0.6l0.52,6.47c-1.76,0.51-3.4,0.76-4.93,0.76c-1.77,0-3.08-0.3-3.92-0.9c-0.84-0.6-1.46-1.51-1.86-2.72
		c-0.4-1.22-0.6-3.19-0.6-5.92v-8.6h-2.62v-6.86h2.62v-4.49L325.56,213.72z"/>
	<path d="M332.94,223.02h6.66v4.01c0.64-1.73,1.3-2.93,1.98-3.58c0.68-0.65,1.52-0.98,2.53-0.98c1.05,0,2.2,0.43,3.44,1.29
		l-2.2,6.68c-0.84-0.46-1.5-0.69-1.99-0.69c-0.93,0-1.66,0.51-2.17,1.52c-0.73,1.43-1.1,4.1-1.1,8.01v8.2h-7.15V223.02z"/>
	<path d="M369.51,247.48h-6.64v-3.96c-0.99,1.63-1.99,2.79-3,3.48c-1.01,0.69-2.25,1.04-3.71,1.04c-1.96,0-3.49-0.77-4.61-2.31
		s-1.67-3.92-1.67-7.13v-15.57h7.15v13.45c0,1.54,0.22,2.63,0.65,3.27s1.04,0.97,1.82,0.97c0.85,0,1.55-0.43,2.09-1.29
		c0.54-0.86,0.81-2.4,0.81-4.63v-11.77h7.11V247.48z"/>
	<path d="M373.88,223.02h6.64v3.57c0.96-1.49,1.92-2.55,2.9-3.18s2.15-0.94,3.53-0.94c1.48,0,2.65,0.35,3.52,1.04
		c0.86,0.69,1.57,1.72,2.12,3.09c1.12-1.6,2.14-2.68,3.06-3.26c0.92-0.58,2.05-0.86,3.4-0.86c1.99,0,3.54,0.78,4.66,2.34
		c1.12,1.56,1.68,4,1.68,7.31v15.36h-7.13v-13.93c0-1.1-0.16-1.93-0.49-2.46c-0.48-0.84-1.07-1.27-1.78-1.27
		c-0.84,0-1.51,0.4-2.02,1.2c-0.51,0.8-0.77,2.08-0.77,3.85v12.62h-7.13v-13.47c0-1.07-0.05-1.8-0.14-2.19
		c-0.15-0.61-0.42-1.11-0.79-1.49c-0.37-0.38-0.81-0.56-1.32-0.56c-0.82,0-1.49,0.41-2.02,1.22c-0.53,0.81-0.79,2.15-0.79,4.01
		v12.48h-7.13V223.02z"/>
	<path d="M430.24,237.58h-14.26c0.13,1.5,0.44,2.63,0.93,3.36c0.69,1.06,1.58,1.59,2.69,1.59c0.7,0,1.36-0.23,1.99-0.69
		c0.38-0.29,0.8-0.81,1.24-1.54l7.01,0.85c-1.07,2.46-2.37,4.22-3.88,5.29c-1.52,1.07-3.69,1.6-6.52,1.6c-2.46,0-4.39-0.46-5.8-1.37
		c-1.41-0.91-2.58-2.36-3.5-4.35c-0.93-1.99-1.39-4.33-1.39-7.01c0-3.82,0.93-6.92,2.79-9.28c1.86-2.36,4.43-3.55,7.7-3.55
		c2.66,0,4.75,0.53,6.29,1.59c1.54,1.06,2.71,2.59,3.51,4.61c0.8,2.01,1.21,4.63,1.21,7.85V237.58z M423,233.08
		c-0.14-1.81-0.51-3.11-1.11-3.89c-0.6-0.78-1.39-1.17-2.37-1.17c-1.13,0-2.03,0.59-2.71,1.77c-0.43,0.74-0.71,1.83-0.82,3.29H423z"
		/>
	<path d="M433.5,223.02h6.63V227c0.99-1.63,1.99-2.79,3.01-3.49c1.01-0.7,2.25-1.05,3.71-1.05c1.97,0,3.51,0.77,4.62,2.31
		s1.67,3.93,1.67,7.15v15.54h-7.15v-13.45c0-1.54-0.22-2.62-0.65-3.26c-0.43-0.64-1.04-0.96-1.82-0.96c-0.86,0-1.56,0.43-2.1,1.29
		c-0.54,0.86-0.8,2.4-0.8,4.63v11.74h-7.11V223.02z"/>
	<path d="M465.97,213.72v9.3h3.92v6.86h-3.92v8.66c0,1.04,0.08,1.73,0.23,2.07c0.23,0.52,0.64,0.78,1.22,0.78
		c0.52,0,1.26-0.2,2.2-0.6l0.52,6.47c-1.76,0.51-3.4,0.76-4.93,0.76c-1.77,0-3.08-0.3-3.92-0.9c-0.84-0.6-1.46-1.51-1.86-2.72
		c-0.4-1.22-0.6-3.19-0.6-5.92v-8.6h-2.62v-6.86h2.62v-4.49L465.97,213.72z"/>
	<path d="M485.79,213.72h11.76c2.32,0,4.19,0.42,5.62,1.24c1.43,0.83,2.61,2.02,3.54,3.57c0.93,1.55,1.61,3.35,2.03,5.41
		c0.42,2.06,0.63,4.24,0.63,6.54c0,3.61-0.31,6.41-0.94,8.39c-0.62,1.99-1.49,3.65-2.6,5c-1.11,1.34-2.3,2.24-3.57,2.68
		c-1.74,0.61-3.31,0.92-4.72,0.92h-11.76V213.72z M493.71,221.36v18.45h1.94c1.65,0,2.83-0.24,3.53-0.73s1.25-1.33,1.64-2.53
		c0.4-1.21,0.59-3.16,0.59-5.86c0-3.58-0.44-6.03-1.33-7.35s-2.35-1.98-4.4-1.98H493.71z"/>
	<path d="M513.32,213.72h7.12v6.38h-7.12V213.72z M513.32,223.02h7.12v24.46h-7.12V223.02z"/>
	<path d="M523.72,240.68l7.06-0.88c0.29,1.1,0.7,1.9,1.22,2.37c0.52,0.48,1.22,0.71,2.1,0.71c0.96,0,1.7-0.27,2.22-0.8
		c0.41-0.4,0.61-0.9,0.61-1.49c0-0.67-0.27-1.2-0.8-1.56c-0.38-0.26-1.4-0.58-3.06-0.97c-2.47-0.57-4.19-1.09-5.15-1.58
		c-0.96-0.48-1.77-1.3-2.43-2.45c-0.66-1.15-0.99-2.46-0.99-3.93c0-1.61,0.36-3,1.07-4.16c0.71-1.17,1.69-2.04,2.94-2.61
		c1.25-0.58,2.92-0.86,5.02-0.86c2.21,0,3.85,0.22,4.9,0.67s1.93,1.14,2.64,2.07s1.29,2.2,1.76,3.8l-6.75,0.88
		c-0.17-0.78-0.47-1.36-0.87-1.73c-0.56-0.49-1.24-0.74-2.03-0.74c-0.8,0-1.39,0.19-1.76,0.56s-0.55,0.83-0.55,1.37
		c0,0.6,0.23,1.05,0.7,1.36s1.48,0.58,3.04,0.83c2.37,0.35,4.13,0.84,5.28,1.47c1.15,0.63,2.04,1.53,2.65,2.69
		c0.61,1.17,0.92,2.45,0.92,3.84c0,1.41-0.32,2.78-0.97,4.12c-0.65,1.33-1.67,2.4-3.06,3.19c-1.39,0.79-3.29,1.18-5.69,1.18
		c-3.39,0-5.81-0.64-7.25-1.91S524.13,243.03,523.72,240.68z"/>
	<path d="M555.43,213.72v9.3h3.92v6.86h-3.92v8.66c0,1.04,0.08,1.73,0.23,2.07c0.23,0.52,0.64,0.78,1.22,0.78
		c0.52,0,1.26-0.2,2.2-0.6l0.52,6.47c-1.76,0.51-3.4,0.76-4.93,0.76c-1.77,0-3.08-0.3-3.92-0.9c-0.84-0.6-1.46-1.51-1.86-2.72
		c-0.4-1.22-0.6-3.19-0.6-5.92v-8.6h-2.62v-6.86h2.62v-4.49L555.43,213.72z"/>
	<path d="M562.81,223.02h6.66v4.01c0.64-1.73,1.3-2.93,1.98-3.58c0.68-0.65,1.52-0.98,2.53-0.98c1.05,0,2.2,0.43,3.44,1.29
		l-2.2,6.68c-0.84-0.46-1.5-0.69-1.99-0.69c-0.93,0-1.66,0.51-2.17,1.52c-0.73,1.43-1.1,4.1-1.1,8.01v8.2h-7.15V223.02z"/>
	<path d="M578.89,213.72H586v6.38h-7.12V213.72z M578.89,223.02H586v24.46h-7.12V223.02z"/>
	<path d="M590.58,213.72h7.18v11.7c0.71-0.98,1.52-1.72,2.42-2.21c0.9-0.49,1.9-0.74,3-0.74c2.26,0,4.13,1.07,5.61,3.21
		c1.48,2.14,2.22,5.22,2.22,9.22c0,2.67-0.34,5.02-1.01,7.06c-0.68,2.04-1.61,3.55-2.81,4.56c-1.2,1.01-2.52,1.51-3.98,1.51
		c-1.25,0-2.39-0.35-3.43-1.06c-0.78-0.55-1.63-1.59-2.55-3.11v3.62h-6.66V213.72z M597.72,235.18c0,2.1,0.3,3.63,0.9,4.57
		c0.6,0.94,1.36,1.42,2.28,1.42c0.85,0,1.56-0.46,2.14-1.39c0.58-0.93,0.87-2.49,0.87-4.69c0-1.93-0.28-3.35-0.85-4.26
		c-0.57-0.91-1.25-1.36-2.05-1.36c-0.97,0-1.76,0.47-2.37,1.42C598.02,231.83,597.72,233.26,597.72,235.18z"/>
	<path d="M633.99,247.48h-6.64v-3.96c-0.99,1.63-1.99,2.79-3,3.48c-1.01,0.69-2.25,1.04-3.71,1.04c-1.96,0-3.49-0.77-4.61-2.31
		c-1.11-1.54-1.67-3.92-1.67-7.13v-15.57h7.15v13.45c0,1.54,0.22,2.63,0.65,3.27c0.43,0.64,1.04,0.97,1.82,0.97
		c0.85,0,1.55-0.43,2.09-1.29c0.54-0.86,0.81-2.4,0.81-4.63v-11.77h7.11V247.48z"/>
	<path d="M646.89,213.72v9.3h3.92v6.86h-3.92v8.66c0,1.04,0.08,1.73,0.23,2.07c0.23,0.52,0.64,0.78,1.22,0.78
		c0.52,0,1.26-0.2,2.2-0.6l0.52,6.47c-1.76,0.51-3.4,0.76-4.93,0.76c-1.77,0-3.08-0.3-3.92-0.9c-0.84-0.6-1.46-1.51-1.86-2.72
		c-0.4-1.22-0.6-3.19-0.6-5.92v-8.6h-2.62v-6.86h2.62v-4.49L646.89,213.72z"/>
	<path d="M653.32,235.32c0-3.73,0.96-6.8,2.87-9.22s4.49-3.63,7.74-3.63c3.72,0,6.53,1.42,8.43,4.26c1.53,2.29,2.29,5.1,2.29,8.45
		c0,3.76-0.95,6.84-2.84,9.25c-1.89,2.4-4.51,3.6-7.86,3.6c-2.98,0-5.4-1-7.24-2.99C654.45,242.57,653.32,239.33,653.32,235.32z
		 M660.45,235.3c0,2.18,0.33,3.79,1,4.84s1.51,1.57,2.53,1.57c1.03,0,1.87-0.51,2.53-1.54c0.66-1.03,0.99-2.68,0.99-4.95
		c0-2.12-0.33-3.7-1-4.73c-0.66-1.04-1.49-1.55-2.46-1.55c-1.04,0-1.89,0.53-2.57,1.58S660.45,233.15,660.45,235.3z"/>
	<path d="M678.14,223.02h6.66v4.01c0.64-1.73,1.3-2.93,1.98-3.58c0.68-0.65,1.52-0.98,2.53-0.98c1.05,0,2.2,0.43,3.44,1.29
		l-2.2,6.68c-0.84-0.46-1.5-0.69-1.99-0.69c-0.93,0-1.66,0.51-2.17,1.52c-0.73,1.43-1.1,4.1-1.1,8.01v8.2h-7.15V223.02z"/>
	<path d="M693.6,240.68l7.06-0.88c0.29,1.1,0.7,1.9,1.22,2.37c0.52,0.48,1.22,0.71,2.1,0.71c0.96,0,1.7-0.27,2.22-0.8
		c0.41-0.4,0.61-0.9,0.61-1.49c0-0.67-0.27-1.2-0.8-1.56c-0.38-0.26-1.4-0.58-3.06-0.97c-2.47-0.57-4.19-1.09-5.15-1.58
		c-0.96-0.48-1.77-1.3-2.43-2.45c-0.66-1.15-0.99-2.46-0.99-3.93c0-1.61,0.36-3,1.07-4.16c0.71-1.17,1.69-2.04,2.94-2.61
		c1.25-0.58,2.92-0.86,5.02-0.86c2.21,0,3.85,0.22,4.9,0.67s1.93,1.14,2.64,2.07s1.29,2.2,1.76,3.8l-6.75,0.88
		c-0.17-0.78-0.47-1.36-0.87-1.73c-0.56-0.49-1.24-0.74-2.03-0.74c-0.8,0-1.39,0.19-1.76,0.56s-0.55,0.83-0.55,1.37
		c0,0.6,0.23,1.05,0.7,1.36s1.48,0.58,3.04,0.83c2.37,0.35,4.13,0.84,5.28,1.47c1.15,0.63,2.04,1.53,2.65,2.69
		c0.61,1.17,0.92,2.45,0.92,3.84c0,1.41-0.32,2.78-0.97,4.12c-0.65,1.33-1.67,2.4-3.06,3.19c-1.39,0.79-3.29,1.18-5.69,1.18
		c-3.39,0-5.81-0.64-7.25-1.91S694,243.03,693.6,240.68z"/>
	<path d="M734.61,213.14h4.44c-1.53,4.45-2.63,8.57-3.3,12.34c-0.57,3.21-0.86,6.63-0.86,10.27c0,7.02,1.39,14.23,4.16,21.65h-4.44
		c-2.26-4.22-3.85-8.04-4.76-11.46s-1.37-7-1.37-10.74c0-3.88,0.48-7.58,1.44-11.08C730.87,220.63,732.44,216.96,734.61,213.14z"/>
	<path d="M743.03,213.72h13.16c2.87,0,5.01,0.9,6.44,2.69c1.43,1.8,2.14,4.35,2.14,7.67c0,3.41-0.78,6.07-2.33,7.99
		c-1.56,1.92-3.93,2.88-7.12,2.88h-4.33v12.53h-7.95V213.72z M750.99,228.11h1.94c1.53,0,2.6-0.35,3.22-1.05
		c0.62-0.7,0.93-1.59,0.93-2.68c0-1.06-0.27-1.96-0.8-2.69c-0.54-0.74-1.54-1.11-3.02-1.11h-2.25V228.11z"/>
	<path d="M766.35,223.02h7.4l3.6,15.5l3.74-15.5h7.18l-7.89,24.46h-6.31L766.35,223.02z"/>
	<path d="M798.9,213.72v9.3h3.92v6.86h-3.92v8.66c0,1.04,0.08,1.73,0.23,2.07c0.23,0.52,0.64,0.78,1.22,0.78
		c0.52,0,1.26-0.2,2.2-0.6l0.52,6.47c-1.76,0.51-3.4,0.76-4.93,0.76c-1.77,0-3.08-0.3-3.92-0.9c-0.84-0.6-1.46-1.51-1.86-2.72
		c-0.4-1.22-0.6-3.19-0.6-5.92v-8.6h-2.62v-6.86h2.62v-4.49L798.9,213.72z"/>
	<path d="M814.59,224.13c0.96,3.5,1.44,7.19,1.44,11.08c0,3.75-0.46,7.33-1.37,10.74s-2.5,7.23-4.76,11.46h-4.44
		c2.77-7.42,4.16-14.63,4.16-21.65c0-3.64-0.29-7.06-0.86-10.27c-0.68-3.78-1.78-7.89-3.3-12.34h4.44
		C812.06,216.96,813.63,220.63,814.59,224.13z"/>
	<path d="M832.55,213.72h7.92v25.45h12.36v8.31h-20.28V213.72z"/>
	<path d="M856.22,213.72h7.12v6.38h-7.12V213.72z M856.22,223.02h7.12v24.46h-7.12V223.02z"/>
	<path d="M867.93,223.02h6.64v3.57c0.96-1.49,1.92-2.55,2.9-3.18s2.15-0.94,3.53-0.94c1.48,0,2.66,0.35,3.52,1.04
		c0.86,0.69,1.57,1.72,2.12,3.09c1.12-1.6,2.13-2.68,3.05-3.26c0.92-0.58,2.05-0.86,3.4-0.86c1.99,0,3.54,0.78,4.66,2.34
		c1.12,1.56,1.68,4,1.68,7.31v15.36h-7.13v-13.93c0-1.1-0.16-1.93-0.49-2.46c-0.48-0.84-1.07-1.27-1.78-1.27
		c-0.84,0-1.51,0.4-2.02,1.2c-0.51,0.8-0.77,2.08-0.77,3.85v12.62h-7.13v-13.47c0-1.07-0.05-1.8-0.14-2.19
		c-0.15-0.61-0.42-1.11-0.79-1.49s-0.81-0.56-1.32-0.56c-0.82,0-1.49,0.41-2.02,1.22s-0.79,2.15-0.79,4.01v12.48h-7.13V223.02z"/>
	<path d="M903.94,213.72h7.12v6.38h-7.12V213.72z M903.94,223.02h7.12v24.46h-7.12V223.02z"/>
	<path d="M924.18,213.72v9.3h3.92v6.86h-3.92v8.66c0,1.04,0.08,1.73,0.23,2.07c0.23,0.52,0.64,0.78,1.22,0.78
		c0.52,0,1.26-0.2,2.2-0.6l0.52,6.47c-1.76,0.51-3.4,0.76-4.93,0.76c-1.77,0-3.08-0.3-3.92-0.9c-0.84-0.6-1.46-1.51-1.86-2.72
		c-0.4-1.22-0.6-3.19-0.6-5.92v-8.6h-2.62v-6.86h2.62v-4.49L924.18,213.72z"/>
	<path d="M952.1,237.58h-14.26c0.13,1.5,0.44,2.63,0.93,3.36c0.69,1.06,1.58,1.59,2.69,1.59c0.7,0,1.36-0.23,1.99-0.69
		c0.38-0.29,0.8-0.81,1.24-1.54l7.01,0.85c-1.07,2.46-2.37,4.22-3.88,5.29c-1.51,1.07-3.69,1.6-6.52,1.6c-2.46,0-4.39-0.46-5.8-1.37
		s-2.58-2.36-3.5-4.35s-1.39-4.33-1.39-7.01c0-3.82,0.93-6.92,2.79-9.28c1.86-2.36,4.42-3.55,7.7-3.55c2.66,0,4.75,0.53,6.29,1.59
		s2.71,2.59,3.51,4.61c0.8,2.01,1.21,4.63,1.21,7.85V237.58z M944.86,233.08c-0.14-1.81-0.51-3.11-1.11-3.89
		c-0.6-0.78-1.39-1.17-2.37-1.17c-1.13,0-2.03,0.59-2.71,1.77c-0.43,0.74-0.71,1.83-0.82,3.29H944.86z"/>
	<path d="M974.91,213.72v33.76h-6.66v-3.62c-0.93,1.54-1.78,2.57-2.55,3.11c-1.03,0.71-2.17,1.06-3.43,1.06
		c-2.53,0-4.46-1.27-5.79-3.8c-1.33-2.53-2-5.61-2-9.23c0-4.05,0.74-7.15,2.21-9.3c1.47-2.15,3.35-3.22,5.62-3.22
		c1.11,0,2.11,0.25,3.02,0.74c0.9,0.49,1.7,1.23,2.4,2.21v-11.7H974.91z M967.78,235.18c0-1.92-0.31-3.35-0.93-4.29
		c-0.62-0.94-1.4-1.42-2.34-1.42c-0.83,0-1.52,0.45-2.08,1.36c-0.56,0.91-0.84,2.43-0.84,4.56c0,2,0.29,3.46,0.87,4.39
		c0.58,0.93,1.29,1.39,2.14,1.39c0.91,0,1.67-0.47,2.27-1.41C967.48,238.83,967.78,237.3,967.78,235.18z"/>
</g>
</svg>
